#ground_outer.obj

v -7.681183 0 -7.870285
v 27.13089 0 -7.870285
v 19 0 0
v 0 0 0
v 19 0 13.27879
v 27.13089 0 17.64421
v -7.681183 0 17.64421
v 0 0 13.27879
v 0 0 8.678974
v -7.681183 0 8.678974
v -7.681183 0 4.236989
v 0 0 4.236989

vn 0 1 0
vn 0 1 0
vn 0 1 0
vn 0 1 0
vn 0 1 0
vn 0 1 0
vn 0 1 0
vn 0 1 0
vn 0 1 0
vn 0 1 0
vn 0 1 0
vn 0 1 0

vt -2.457158 3.24184
vt 3.800391 3.24184
vt 2.329548 1.739286
vt -1.141861 1.739681
vt 2.333868 -0.7962286
vt 3.800392 -1.627278
vt -2.457158 -1.627278
vt -1.112168 -0.796559
vt -1.225843 0.07837434
vt -2.457158 0.08362347
vt -2.457158 0.9313201
vt -1.273338 0.9313205

g ground_outer
usemtl ground_outer
usemap ground_outer
f 1/1/1 3/3/3 2/2/2
f 1/1/1 4/4/4 3/3/3
f 2/2/2 3/3/3 5/5/5
f 2/2/2 5/5/5 6/6/6
f 7/7/7 6/6/6 5/5/5
f 7/7/7 5/5/5 8/8/8
f 7/7/7 8/8/8 9/9/9
f 7/7/7 9/9/9 10/10/10
f 11/11/11 4/4/4 1/1/1
f 11/11/11 12/12/12 4/4/4
