#ground_inner_a.obj

v 17 -0.5 7
v 17 -0.5 8
v 2.861023E-07 -0.5 8
v 2.861023E-07 -0.5 7
v 2.861023E-07 -0.5 9
v 17 -0.5 9
v 2.861023E-07 -0.5 10
v 17 -0.5 10
v 2.861023E-07 -0.5 11
v 17 -0.5 11
v 17 -0.5 3
v 17 -0.5 4
v 2.861023E-07 -0.5 4
v 2.861023E-07 -0.5 3
v 17 -0.5 1
v 17 -0.5 2
v 2.861023E-07 -0.5 2
v 2.861023E-07 -0.5 1
v 17 -0.5 0
v 17 -0.5 1
v 2.861023E-07 -0.5 1
v 2.861023E-07 -0.5 0
v 17 -0.5 2
v 17 -0.5 3
v 2.861023E-07 -0.5 3
v 2.861023E-07 -0.5 2
v 17 -1.017253E-07 1.033147E-07
v 17 0 -1
v 18 0 -1
v 18 0 3.278255E-09
v 17 -5.02824E-17 10
v 18 0 10
v 17 -3.700747E-17 11.27879
v 18 0 11.27879
v 18 0 12.27879
v 17 0 12.27879
v -3.051758E-07 -6.103515E-07 12.27879
v -0.9999997 -6.103515E-07 12.27879
v -0.9999997 -6.103515E-07 11.27879
v 1.87556E-07 -1.017252E-07 11.27879
v 1.243591E-07 -1.669606E-07 10
v -0.9999997 -6.103515E-07 10
v -9.536743E-09 -3.051758E-07 0
v -0.9999997 -6.103515E-07 0
v -9.536743E-09 -3.051758E-07 -1
v -0.9999997 -6.103515E-07 -1
v 17 0 -1
v 17 -1.017253E-07 1.033147E-07
v -9.536743E-09 -3.051758E-07 0
v -9.536743E-09 -3.051758E-07 -1
v 17 -3.700747E-17 11.27879
v 17 0 12.27879
v 2.861023E-07 0 12.27879
v 1.87556E-07 -1.017252E-07 11.27879
v 17 -1.017253E-07 1.033147E-07
v 17 -0.5000001 1.283238E-07
v 6.67572E-08 -0.5000004 0
v -9.536743E-09 -3.051758E-07 0
v 1.243591E-07 -1.669606E-07 10
v -9.536743E-09 -3.051758E-07 0
v 6.67572E-08 -0.5000004 0
v 3.482141E-07 -0.5000005 10
v 1.87556E-07 -1.017252E-07 11.27879
v 3.155073E-07 -0.4999999 11
v 17 -0.4999997 11
v 17 -3.700747E-17 11.27879
v 1.87556E-07 -1.017252E-07 11.27879
v 3.155073E-07 -0.4999999 11
v 17 -0.5 10
v 17 -5.02824E-17 10
v 17 -3.700747E-17 11.27879
v 17 -0.4999997 11
v 17 -0.5000001 1.283238E-07
v 17 -1.017253E-07 1.033147E-07

vn 0 1 0
vn 0 1 0
vn 0 1 0
vn 0 1 0
vn 0 1 0
vn 0 1 0
vn 0 1 0
vn 0 1 0
vn 0 1 0
vn 0 1 0
vn 0 1 0
vn 0 1 0
vn 0 1 0
vn 0 1 0
vn 0 1 0
vn 0 1 0
vn 0 1 0
vn 0 1 0
vn 0 1 0
vn 0 1 0
vn 0 1 0
vn 0 1 0
vn 0 1 0
vn 0 1 0
vn 0 1 0
vn 0 1 0
vn 0 1 0
vn 0 1 0
vn 0 1 0
vn 0 1 0
vn 0 1 0
vn 0 1 0
vn 0 1 0
vn 0 1 0
vn 0 1 0
vn 0 1 0
vn -2.543132E-07 1 2.53495E-07
vn -2.543132E-07 1 2.53495E-07
vn -3.785458E-07 1 0
vn -3.785459E-07 1 0
vn -3.858169E-07 1 0
vn -3.858169E-07 1 0
vn -1.536544E-07 1 0
vn -3.680009E-07 1 0
vn 0 1 0
vn -3.051758E-07 1 0
vn 0 1 0
vn 0 1 0
vn -1.536544E-07 1 0
vn 0 1 0
vn 0 1 0
vn 0 1 0
vn 0 1 0
vn 0 1 0
vn 0 0 1
vn 0 0 1
vn 0 0 1
vn 0 0 1
vn 1 3.058142E-07 0
vn 1 3.001489E-07 0
vn 1 3.001489E-07 0
vn 1 3.058142E-07 0
vn 1 3.555364E-07 0
vn 1 3.555364E-07 0
vn 0 0.4869907 -0.8734071
vn 0 0.4869907 -0.8734071
vn 0 0.4869907 -0.8734071
vn 0 0.4869907 -0.8734071
vn -1 0 0
vn -1 0 0
vn -1 0 0
vn -1 0 0
vn -1 0 0
vn -1 0 0

vt 3.251797 1
vt 3.251797 0.75
vt -1 0.75
vt -1 1
vt -1 0.5
vt 3.251797 0.5
vt -1 0.25
vt 3.251797 0.25
vt -1 0
vt 3.251797 0
vt 3.251797 1
vt 3.251797 0.75
vt -1 0.75
vt -1 1
vt 3.251797 0.5
vt 3.251797 0.25
vt -1 0.25
vt -1 0.5
vt 3.251797 0.25
vt 3.251797 0
vt -1 0
vt -1 0.25
vt 3.251797 0.5
vt 3.251797 0.75
vt -1 0.75
vt -1 0.5
vt -0.4999239 6.24635E-10
vt -0.75 0
vt -0.75 0.25
vt -0.4999238 0.25
vt 2.000838 1.79907E-08
vt 2.000838 0.2499998
vt 2.250914 7.426442E-10
vt 2.250914 0.25
vt 2.501797 0.25
vt 2.501797 0
vt 2.501797 0.25
vt 2.501797 0
vt 2.250914 8.37136E-10
vt 2.250914 0.2500001
vt 2.000838 0.2500001
vt 2.000838 8.171903E-09
vt -0.4999238 0.25
vt -0.4999239 6.289814E-10
vt -0.75 0.25
vt -0.75 0
vt 3.501797 1.25
vt 3.501797 1
vt -0.75 1
vt -0.75 1.25
vt 3.501797 1.25
vt 3.501797 1
vt -0.75 1
vt -0.75 1.25
vt 3.501797 1.25
vt 3.501797 1.125
vt -0.75 1.125
vt -0.75 1.25
vt 2.000838 8.674301E-09
vt -0.4999239 6.289814E-10
vt -0.4999239 0.125
vt 2.000838 0.1250001
vt 2.250914 8.37136E-10
vt 2.250914 0.1250001
vt 3.501797 1.125
vt 3.501797 1
vt -0.75 1
vt -0.75 1.125
vt 2.000827 0.1250017
vt 2.000831 0.2500029
vt 2.250914 0.25
vt 2.250914 0.125
vt -0.4999239 0.125
vt -0.4999238 0.25

g ground_inner_a
usemtl ground_inner_a
usemap ground_inner_a
f 1/1/1 3/3/3 2/2/2
f 1/1/1 4/4/4 3/3/3
f 2/2/2 3/3/3 5/5/5
f 2/2/2 5/5/5 6/6/6
f 6/6/6 5/5/5 7/7/7
f 6/6/6 7/7/7 8/8/8
f 8/8/8 7/7/7 9/9/9
f 8/8/8 9/9/9 10/10/10
f 11/11/11 13/13/13 12/12/12
f 11/11/11 14/14/14 13/13/13
f 15/15/15 17/17/17 16/16/16
f 15/15/15 18/18/18 17/17/17
f 19/19/19 21/21/21 20/20/20
f 19/19/19 22/22/22 21/21/21
f 23/23/23 25/25/25 24/24/24
f 23/23/23 26/26/26 25/25/25
f 27/27/27 29/29/29 28/28/28
f 27/27/27 30/30/30 29/29/29
f 31/31/31 30/30/30 27/27/27
f 31/31/31 32/32/32 30/30/30
f 33/33/33 32/32/32 31/31/31
f 33/33/33 34/34/34 32/32/32
f 35/35/35 34/34/34 33/33/33
f 35/35/35 33/33/33 36/36/36
f 37/37/37 39/39/39 38/38/38
f 37/37/37 40/40/40 39/39/39
f 39/39/39 40/40/40 41/41/41
f 39/39/39 41/41/41 42/42/42
f 42/42/42 41/41/41 43/43/43
f 42/42/42 43/43/43 44/44/44
f 44/44/44 43/43/43 45/45/45
f 44/44/44 45/45/45 46/46/46
f 47/47/47 49/49/49 48/48/48
f 47/47/47 50/50/50 49/49/49
f 51/51/51 53/53/53 52/52/52
f 51/51/51 54/54/54 53/53/53
f 55/55/55 57/57/57 56/56/56
f 55/55/55 58/58/58 57/57/57
f 59/59/59 61/61/61 60/60/60
f 59/59/59 62/62/62 61/61/61
f 63/63/63 62/62/62 59/59/59
f 63/63/63 64/64/64 62/62/62
f 65/65/65 67/67/67 66/66/66
f 65/65/65 68/68/68 67/67/67
f 69/69/69 71/71/71 70/70/70
f 69/69/69 72/72/72 71/71/71
f 73/73/73 69/69/69 70/70/70
f 73/73/73 70/70/70 74/74/74
