#KillBox_Dark_26.obj

v -30.27055 -20.45412 46.9381
v -45.03499 0.035986 46.9381
v -20.57407 0.035986 46.93811
v -9.673882 -20.45412 46.93811
v -0.1615143 0.035986 46.93811
v 11.4347 -20.45412 46.93811
v 21.12132 0.035986 46.93811
v 32.62242 -20.45412 46.93811
v 42.5995 0.035986 46.93811
v -41.09324 94.61426 -41.09324
v 41.09325 94.61427 -41.09325
v 36.95964 97.81895 -36.79962
v -36.97881 97.81894 -37.03875
v -37.01039 97.81895 36.885
v -41.09325 94.61427 41.09325
v 36.97401 97.81894 36.95223
v 41.09324 94.61427 41.09324
v -45.50543 22.89553 -45.48684
v -45.61015 22.89553 45.14122
v -45.61015 22.89553 45.14122
v -41.09325 94.61427 41.09325
v 41.09324 94.61427 41.09324
v 45.11469 22.89553 45.1671
v 45.11469 22.89553 45.1671
v 41.09324 94.61427 41.09324
v 41.09325 94.61427 -41.09325
v 45.15837 22.89553 -45.53445
v -23.60032 94.90266 5.794582
v -19.45197 111.5335 3.864544
v -14.70043 108.702 1.60075
v -15.53669 94.87947 2.400196
v -26.94038 94.91226 -2.400188
v -21.42012 112.7063 -1.600739
v -13.3135 116.1597 3.864544
v -12.19648 110.6944 1.60075
v -13.77618 118.4235 -1.600739
v 10.24955 120.2579 5.049896
v 8.761597 113.1162 2.09174
v 10.86589 123.216 -2.091728
v 18.3196 114.1345 5.049896
v 12.05366 110.5555 2.09174
v 20.91504 115.617 -2.091728
v 12.37853 92.84341 3.132305
v 22.98563 92.89021 7.56205
v 27.37924 92.90958 -3.132298
v -18.87675 94.88907 -5.794571
v -16.66858 109.8748 -3.864532
v -21.42012 112.7063 -1.600739
v -26.94038 94.91226 -2.400188
v -15.53669 94.87947 2.400196
v -14.70043 108.702 1.60075
v -12.65916 112.9582 -3.864532
v -13.77618 118.4235 -1.600739
v -12.19648 110.6944 1.60075
v 9.37793 116.0744 -5.049889
v 10.86589 123.216 -2.091728
v 8.761597 113.1162 2.09174
v 14.64909 112.038 -5.049889
v 20.91504 115.617 -2.091728
v 12.05366 110.5555 2.09174
v 27.37924 92.90958 -3.132298
v 16.77213 92.8628 -7.562038
v 12.37853 92.84341 3.132305
v -48.24145 21.18483 -48.34262
v -48.24144 21.18483 47.93713
v -48.50925 0 48.50925
v -48.50925 0 -48.50925
v -45.61015 22.89553 45.14122
v -45.50543 22.89553 -45.48684
v -48.24144 21.18483 47.93713
v 48.12794 21.18483 47.93713
v 48.50925 0 48.50925
v -48.50925 0 48.50925
v 45.11469 22.89553 45.1671
v -45.61015 22.89553 45.14122
v 48.12794 21.18483 47.93713
v 48.12794 21.18483 -48.34263
v 48.50925 0 -48.50925
v 48.50925 0 48.50925
v 45.15837 22.89553 -45.53445
v 45.11469 22.89553 45.1671
v 46.9381 -20.45412 30.27055
v 46.9381 0.035986 45.03499
v 46.93811 0.035986 20.57407
v 46.93811 -20.45412 9.673882
v 46.93811 0.035986 0.1615143
v 46.93811 -20.45412 -11.4347
v 46.93811 0.035986 -21.12132
v 46.93811 -20.45412 -32.62243
v 46.93811 0.035986 -42.5995
v -46.9381 -20.45412 -30.27055
v -46.9381 0.035986 -45.03499
v -46.93811 0.035986 -20.57407
v -46.93811 -20.45412 -9.673882
v -46.93811 0.035986 -0.1615143
v -46.93811 -20.45412 11.4347
v -46.93811 0.035986 21.12132
v -46.93811 -20.45412 32.62242
v -46.93811 0.035986 42.5995

vn 0 0 1
vn 0 0 1
vn 0 0 1
vn 0 0 1
vn 0 0 1
vn 0 0 1
vn 0 0 1
vn 0 0 1
vn 0 0 1
vn -0.6772209 0.6898192 -0.255971
vn 0.6779554 0.6891169 -0.2559189
vn 0.2255169 0.9482371 -0.2235813
vn -0.2259249 0.9481004 -0.2237486
vn -0.2263438 0.9480311 0.2236191
vn -0.5680817 0.5980741 0.5653234
vn 0.2251005 0.9483448 0.2235437
vn 0.5677047 0.597463 0.5663474
vn -0.9980678 0.06213197 -0.0006048253
vn -0.7047694 0.08378065 0.704472
vn -0.7047694 0.08378065 0.704472
vn -0.5680817 0.5980741 0.5653234
vn 0.5677047 0.597463 0.5663474
vn 0.7047237 0.07964491 0.7049973
vn 0.7047237 0.07964491 0.7049973
vn 0.5677047 0.597463 0.5663474
vn 0.6779554 0.6891169 -0.2559189
vn 0.9984146 0.05628699 0.0002523284
vn -0.3465348 0.1985786 0.916777
vn -0.2881838 0.2533272 0.9234583
vn 0.8071581 -0.4224825 0.4123159
vn 0.9243025 -0.04727843 0.3787211
vn -0.8762818 0.2960455 -0.3801148
vn -0.7434147 0.5388699 -0.396174
vn -0.1671035 0.3419153 0.9247542
vn 0.344236 -0.8512437 0.3960882
vn -0.3817044 0.8384287 -0.3890233
vn 0.0596732 0.3453198 0.936586
vn -0.253727 -0.8772253 0.4075517
vn 0.202671 0.8880802 -0.412599
vn 0.2912989 0.2495643 0.9235056
vn -0.8130925 -0.4078041 0.415423
vn 0.7501911 0.5284267 -0.3974652
vn -0.9257274 -0.01092773 0.3780335
vn 0.3499064 0.1931919 0.9166474
vn 0.8831723 0.2742192 -0.3805397
vn 0.3985604 0.05672103 -0.9153864
vn 0.3254552 -0.1217676 -0.9376842
vn -0.7434147 0.5388699 -0.396174
vn -0.8762818 0.2960455 -0.3801148
vn 0.9243025 -0.04727843 0.3787211
vn 0.8071581 -0.4224825 0.4123159
vn 0.1241343 -0.3429345 -0.9311211
vn -0.3817044 0.8384287 -0.3890233
vn 0.344236 -0.8512437 0.3960882
vn -0.1119896 -0.3446307 -0.9320344
vn 0.202671 0.8880802 -0.412599
vn -0.253727 -0.8772253 0.4075517
vn -0.3244819 -0.1132153 -0.939092
vn 0.7501911 0.5284267 -0.3974652
vn -0.8130925 -0.4078041 0.415423
vn 0.8831723 0.2742192 -0.3805397
vn -0.3985351 0.0756815 -0.9140252
vn -0.9257274 -0.01092773 0.3780335
vn -0.8737344 0.4864036 -0.0001711201
vn -0.5543328 0.6254606 0.5491031
vn -0.7069297 0.02802256 0.7067285
vn -0.9999201 0.01264035 0
vn -0.2900001 0.9144343 0.2823291
vn -0.5375251 0.8432477 -0.0003011271
vn -0.5543328 0.6254606 0.5491031
vn 0.540082 0.6371081 0.5499133
vn 0.7068206 0.03180691 0.7066774
vn -0.7069297 0.02802256 0.7067285
vn 0.266109 0.9221316 0.2808192
vn -0.2900001 0.9144343 0.2823291
vn 0.540082 0.6371081 0.5499133
vn 0.8604435 0.5095459 6.67155E-05
vn 0.999838 0.0179964 0
vn 0.7068206 0.03180691 0.7066774
vn 0.4964285 0.8680775 0.0001160148
vn 0.266109 0.9221316 0.2808192
vn 1 0 0
vn 1 0 0
vn 1 0 0
vn 1 0 0
vn 1 0 0
vn 1 0 0
vn 1 0 0
vn 1 0 0
vn 1 0 0
vn -1 0 0
vn -1 0 0
vn -1 0 0
vn -1 0 0
vn -1 0 0
vn -1 0 0
vn -1 0 0
vn -1 0 0
vn -1 0 0

vt 0.3562134 0.07658469
vt 0.2728277 0.01687928
vt 0.2728277 0.1157959
vt 0.3562134 0.1598749
vt 0.2728277 0.1983417
vt 0.3562135 0.2452352
vt 0.2728277 0.2844066
vt 0.3562136 0.3309154
vt 0.2728277 0.3712614
vt 0.6527243 0.336261
vt 0.9815475 0.336261
vt 0.9592085 0.3214433
vt 0.677855 0.3223531
vt 0.6777349 0.04105446
vt 0.6578106 0.02140296
vt 0.9592634 0.04079894
vt 0.9778125 0.02140296
vt 0.387228 0.3569717
vt 0.387228 0.01246608
vt 0.9985172 0.6189785
vt 0.9772192 0.3404138
vt 0.6577486 0.3404138
vt 0.6363767 0.6189785
vt 0.387228 0.3569717
vt 0.6477001 0.3321082
vt 0.6477501 0.03071467
vt 0.387228 0.01246608
vt 0.64851 0.9215044
vt 0.7286676 0.9215044
vt 0.7286676 0.9755696
vt 0.64851 0.9755696
vt 0.64851 0.8809554
vt 0.7286676 0.8809554
vt 0.7579538 0.9215044
vt 0.7579538 0.9755696
vt 0.7579538 0.8809554
vt 0.8646926 0.9215044
vt 0.8646926 0.9755696
vt 0.8646926 0.8809554
vt 0.8941542 0.9215044
vt 0.8941542 0.9755696
vt 0.8941542 0.8809554
vt 0.9817176 0.9755696
vt 0.9817176 0.9215044
vt 0.9817176 0.8809554
vt 0.64851 0.943593
vt 0.7286676 0.943593
vt 0.7286676 0.8944716
vt 0.64851 0.8944716
vt 0.64851 0.9880618
vt 0.7286676 0.9880618
vt 0.7579538 0.943593
vt 0.7579538 0.8944716
vt 0.7579538 0.9880618
vt 0.8646926 0.943593
vt 0.8646926 0.8944716
vt 0.8646926 0.9880618
vt 0.8941542 0.943593
vt 0.8941542 0.8944716
vt 0.8941542 0.9880618
vt 0.9817176 0.8944716
vt 0.9817176 0.943593
vt 0.9817176 0.9880618
vt 0.09497188 0.3673427
vt 0.09497188 0.01625562
vt 0.008617149 0.01422817
vt 0.008617149 0.3702305
vt 0.1005775 0.02072359
vt 0.1005775 0.3630943
vt 0.09497188 0.3762679
vt 0.09497188 0.006511184
vt 0.008617149 0.004483762
vt 0.008617149 0.3791546
vt 0.1005775 0.01097879
vt 0.1005775 0.3720191
vt 0.09497188 0.3673427
vt 0.09497188 0.01625637
vt 0.008617149 0.01422817
vt 0.008617149 0.3702305
vt 0.1005775 0.02072359
vt 0.1005775 0.3630943
vt 0.3562134 0.07658469
vt 0.2728277 0.01687928
vt 0.2728277 0.1157959
vt 0.3562134 0.1598749
vt 0.2728277 0.1983417
vt 0.3562135 0.2452352
vt 0.2728277 0.2844066
vt 0.3562136 0.3309154
vt 0.2728277 0.3712614
vt 0.3562134 0.07658469
vt 0.2728277 0.01687928
vt 0.2728277 0.1157959
vt 0.3562134 0.1598749
vt 0.2728277 0.1983417
vt 0.3562135 0.2452352
vt 0.2728277 0.2844066
vt 0.3562136 0.3309154
vt 0.2728277 0.3712614

g KillBox_Dark_26
usemtl KillBox_Dark_26
usemap KillBox_Dark_26
f 1/1/1 3/3/3 2/2/2
f 4/4/4 5/5/5 3/3/3
f 6/6/6 7/7/7 5/5/5
f 8/8/8 9/9/9 7/7/7
f 10/10/10 12/12/12 11/11/11
f 10/10/10 13/13/13 12/12/12
f 10/10/10 14/14/14 13/13/13
f 10/10/10 15/15/15 14/14/14
f 11/11/11 12/12/12 16/16/16
f 13/13/13 16/16/16 12/12/12
f 13/13/13 14/14/14 16/16/16
f 11/11/11 16/16/16 17/17/17
f 17/17/17 14/14/14 15/15/15
f 17/17/17 16/16/16 14/14/14
f 18/18/18 15/15/15 10/10/10
f 18/18/18 19/19/19 15/15/15
f 20/20/20 22/22/22 21/21/21
f 20/20/20 23/23/23 22/22/22
f 24/24/24 26/26/26 25/25/25
f 24/24/24 27/27/27 26/26/26
f 28/28/28 30/30/30 29/29/29
f 28/28/28 31/31/31 30/30/30
f 32/32/32 28/28/28 29/29/29
f 32/32/32 29/29/29 33/33/33
f 30/30/30 34/34/34 29/29/29
f 30/30/30 35/35/35 34/34/34
f 29/29/29 36/36/36 33/33/33
f 29/29/29 34/34/34 36/36/36
f 35/35/35 37/37/37 34/34/34
f 35/35/35 38/38/38 37/37/37
f 34/34/34 39/39/39 36/36/36
f 34/34/34 37/37/37 39/39/39
f 38/38/38 40/40/40 37/37/37
f 38/38/38 41/41/41 40/40/40
f 37/37/37 42/42/42 39/39/39
f 37/37/37 40/40/40 42/42/42
f 40/40/40 41/41/41 43/43/43
f 40/40/40 43/43/43 44/44/44
f 42/42/42 40/40/40 44/44/44
f 42/42/42 44/44/44 45/45/45
f 46/46/46 48/48/48 47/47/47
f 46/46/46 49/49/49 48/48/48
f 50/50/50 46/46/46 47/47/47
f 50/50/50 47/47/47 51/51/51
f 48/48/48 52/52/52 47/47/47
f 48/48/48 53/53/53 52/52/52
f 47/47/47 54/54/54 51/51/51
f 47/47/47 52/52/52 54/54/54
f 53/53/53 55/55/55 52/52/52
f 53/53/53 56/56/56 55/55/55
f 52/52/52 57/57/57 54/54/54
f 52/52/52 55/55/55 57/57/57
f 56/56/56 58/58/58 55/55/55
f 56/56/56 59/59/59 58/58/58
f 55/55/55 60/60/60 57/57/57
f 55/55/55 58/58/58 60/60/60
f 58/58/58 59/59/59 61/61/61
f 58/58/58 61/61/61 62/62/62
f 60/60/60 58/58/58 62/62/62
f 60/60/60 62/62/62 63/63/63
f 64/64/64 66/66/66 65/65/65
f 64/64/64 67/67/67 66/66/66
f 64/64/64 65/65/65 68/68/68
f 64/64/64 68/68/68 69/69/69
f 70/70/70 72/72/72 71/71/71
f 70/70/70 73/73/73 72/72/72
f 70/70/70 71/71/71 74/74/74
f 70/70/70 74/74/74 75/75/75
f 76/76/76 78/78/78 77/77/77
f 76/76/76 79/79/79 78/78/78
f 76/76/76 77/77/77 80/80/80
f 76/76/76 80/80/80 81/81/81
f 82/82/82 84/84/84 83/83/83
f 85/85/85 86/86/86 84/84/84
f 87/87/87 88/88/88 86/86/86
f 89/89/89 90/90/90 88/88/88
f 91/91/91 93/93/93 92/92/92
f 94/94/94 95/95/95 93/93/93
f 96/96/96 97/97/97 95/95/95
f 98/98/98 99/99/99 97/97/97
